<svg xmlns="http://www.w3.org/2000/svg" viewBox="0 0 846.999 839.003">
  <title>LOGO_small4</title>
  <g id="Polygon_2_copy_12" data-name="Polygon 2 copy 12" style="isolation: isolate">
    <g id="Polygon_2_copy_12-2" data-name="Polygon 2 copy 12">
      <path d="M618.356,13.183l227.6,228.293L808.512,644.614l-318.135,193.2L215.291,652.785l-37-332.871L345.228,64.276,618.356,13.183m0.335-1.08L344.624,63.371l-167.362,256.3,37.087,333.688L490.35,839l319.111-193.8L847,241.1,618.691,12.1h0Z" fill="#89b2cc"/>
    </g>
  </g>
  <g id="Polygon_2_copy_18" data-name="Polygon 2 copy 18" style="isolation: isolate">
    <g id="Polygon_2_copy_18-2" data-name="Polygon 2 copy 18">
      <path d="M561.177,9.009l226.7,228.167L748.3,640.023,428.774,833.042,154.305,648.089,118.988,315.446,287.449,60.016,561.177,9.009m0.337-1.08L286.849,59.111,117.956,315.195l35.4,333.463L428.744,834.228,749.25,640.62l39.668-403.815L561.514,7.929h0Z" fill="#89b2cc"/>
    </g>
  </g>
  <g id="Polygon_2_copy_19" data-name="Polygon 2 copy 19" opacity="0.702" style="isolation: isolate">
    <g id="Polygon_2_copy_19-2" data-name="Polygon 2 copy 19">
      <path d="M504.506,5.585L729.773,233.237,687.76,635.246,367.1,827.75,93.831,643.207l-33.3-331.954L230.559,56.4,504.506,5.585m0.507-1.62L229.663,55.045,58.983,310.868,92.409,644.057,367.051,829.528,689.174,636.147l42.165-403.46L505.013,3.966h0Z" fill="#ff966f"/>
    </g>
  </g>
  <g id="Polygon_2_copy_20" data-name="Polygon 2 copy 20" style="isolation: isolate">
    <g id="Polygon_2_copy_20-2" data-name="Polygon 2 copy 20">
      <path d="M448.164,1.08L672.708,228.929,628.149,631.069,305.379,823.643,32.4,638.891,1.029,306.8,173.063,51.882l275.1-50.8M448.5,0L172.469,50.975,0,306.541,31.448,639.454l273.9,185.374L629.088,631.673l44.666-403.108L448.5,0h0Z" fill="#89b2cc"/>
    </g>
  </g>
  <g id="s" opacity="0.8" style="isolation: isolate">
    <g id="s-2" data-name="s">
      <path d="M572.632,442.993c21.625,0,41.428,3.377,58.859,10.036a165.708,165.708,0,0,1,45.988,26.4L659.461,511a71.339,71.339,0,0,0-13.856-11.521A131.715,131.715,0,0,0,624.95,488.6a145.542,145.542,0,0,0-25-7.862,130.618,130.618,0,0,0-28.23-3.009c-25.321,0-44.154,4.865-55.974,14.459C503.865,501.835,497.84,515.228,497.84,532c0,9.027,1.731,16.611,5.143,22.54s8.82,11.088,16.081,15.292a120.461,120.461,0,0,0,26.871,10.887c10.583,3.051,23.321,6.3,37.869,9.659a392.042,392.042,0,0,1,45.206,12.595c13.367,4.7,24.927,10.6,34.357,17.541a70.036,70.036,0,0,1,21.561,25.355c4.918,9.916,7.412,22.281,7.412,36.752,0,15.371-3.026,28.887-8.994,40.172a80.672,80.672,0,0,1-24.524,28.126c-10.323,7.4-22.7,12.9-36.781,16.373a193.906,193.906,0,0,1-46.223,5.252,212.981,212.981,0,0,1-70.5-11.654,197.386,197.386,0,0,1-59.858-33.509l18.513-32.986a112.86,112.86,0,0,0,18.137,14.771,154.962,154.962,0,0,0,26.591,14.1,195.953,195.953,0,0,0,32.049,10.155,161.676,161.676,0,0,0,35.98,3.929c23.167,0,41.434-4.226,54.294-12.559,13-8.423,19.587-21.22,19.587-38.035,0-9.336-2.124-17.323-6.312-23.737-4.17-6.379-10.336-11.97-18.327-16.619-7.922-4.6-17.879-8.73-29.595-12.262-11.733-3.527-25.159-7.163-39.909-10.806A395.356,395.356,0,0,1,513.307,610.5c-12.3-4.534-22.707-10.047-30.938-16.386a61.508,61.508,0,0,1-18.606-23.048c-4.17-9-6.284-19.981-6.284-32.643,0-15.393,2.878-29.152,8.555-40.894A85.94,85.94,0,0,1,489.9,467.571a104.427,104.427,0,0,1,36.549-18.418,166.215,166.215,0,0,1,46.183-6.16m0-1a166.436,166.436,0,0,0-46.462,6.2q-21.416,6.2-36.9,18.6A86.541,86.541,0,0,0,465.133,497.1q-8.658,17.909-8.655,41.329,0,19.287,6.377,33.063a62.211,62.211,0,0,0,18.9,23.42q12.523,9.644,31.2,16.532A394.6,394.6,0,0,0,556.234,624.3q22.313,5.511,39.857,10.791t29.38,12.169q11.84,6.888,17.992,16.3t6.149,23.19q0,24.8-19.131,37.2t-53.75,12.4a159.9,159.9,0,0,1-35.757-3.9,194.111,194.111,0,0,1-31.885-10.1,153.2,153.2,0,0,1-26.419-14.006,108.41,108.41,0,0,1-18.9-15.613l-19.587,34.9a197.482,197.482,0,0,0,60.81,34.211,212.981,212.981,0,0,0,70.831,11.71,194.01,194.01,0,0,0,46.462-5.281q21.405-5.274,37.124-16.532a81.287,81.287,0,0,0,24.825-28.471q9.107-17.22,9.11-40.64,0-22.042-7.516-37.2a70.692,70.692,0,0,0-21.864-25.716q-14.349-10.558-34.619-17.68A391.262,391.262,0,0,0,584.02,589.4q-21.864-5.048-37.807-9.643t-26.647-10.791q-10.708-6.2-15.715-14.924T498.84,532q0-24.8,17.537-39.033t55.344-14.235a129.018,129.018,0,0,1,28.014,2.985,143.858,143.858,0,0,1,24.825,7.807,130.136,130.136,0,0,1,20.5,10.791,67.794,67.794,0,0,1,14.576,12.4l19.131-33.522A165.728,165.728,0,0,0,631.848,452.1q-26.423-10.1-59.216-10.1h0Z" fill="#a0d1f0"/>
    </g>
  </g>
  <g id="s-3" data-name="s" opacity="0.8" style="isolation: isolate">
    <g id="s-4" data-name="s">
      <path d="M281.03,442.993c21.625,0,41.428,3.377,58.859,10.036a165.71,165.71,0,0,1,45.988,26.4L367.859,511A71.335,71.335,0,0,0,354,499.476,131.715,131.715,0,0,0,333.348,488.6a145.539,145.539,0,0,0-25-7.862,130.619,130.619,0,0,0-28.23-3.009c-25.321,0-44.154,4.865-55.974,14.459-11.882,9.646-17.907,23.039-17.907,39.809,0,9.027,1.731,16.611,5.143,22.54s8.82,11.088,16.081,15.292a120.464,120.464,0,0,0,26.871,10.887c10.582,3.051,23.32,6.3,37.869,9.659a392.051,392.051,0,0,1,45.206,12.595c13.367,4.7,24.927,10.6,34.357,17.541a70.034,70.034,0,0,1,21.562,25.355c4.918,9.916,7.412,22.281,7.412,36.752,0,15.371-3.026,28.887-8.994,40.172a80.67,80.67,0,0,1-24.524,28.126c-10.323,7.4-22.7,12.9-36.781,16.373a193.906,193.906,0,0,1-46.223,5.252,212.982,212.982,0,0,1-70.5-11.654A197.383,197.383,0,0,1,153.86,727.38l18.513-32.986a112.856,112.856,0,0,0,18.137,14.771,154.967,154.967,0,0,0,26.591,14.1,195.953,195.953,0,0,0,32.049,10.155,161.676,161.676,0,0,0,35.98,3.929c23.167,0,41.434-4.226,54.294-12.559,13-8.423,19.587-21.22,19.587-38.035,0-9.336-2.124-17.323-6.312-23.737-4.17-6.379-10.336-11.97-18.327-16.619-7.922-4.6-17.879-8.73-29.595-12.262-11.733-3.528-25.159-7.163-39.909-10.806A395.367,395.367,0,0,1,221.7,610.5c-12.3-4.534-22.707-10.047-30.938-16.386A61.51,61.51,0,0,1,172.16,571.07c-4.17-9-6.284-19.981-6.284-32.643,0-15.393,2.878-29.152,8.555-40.894A85.94,85.94,0,0,1,198.3,467.571a104.427,104.427,0,0,1,36.549-18.418,166.214,166.214,0,0,1,46.183-6.16m0-1a166.435,166.435,0,0,0-46.462,6.2q-21.416,6.2-36.9,18.6A86.542,86.542,0,0,0,173.531,497.1q-8.658,17.909-8.655,41.329,0,19.287,6.377,33.063a62.212,62.212,0,0,0,18.9,23.42q12.523,9.644,31.2,16.532A394.608,394.608,0,0,0,264.632,624.3q22.313,5.511,39.857,10.791t29.38,12.169q11.84,6.888,17.993,16.3t6.149,23.19q0,24.8-19.131,37.2t-53.75,12.4a159.9,159.9,0,0,1-35.757-3.9,194.111,194.111,0,0,1-31.885-10.1,153.207,153.207,0,0,1-26.419-14.006,108.406,108.406,0,0,1-18.9-15.613l-19.587,34.9a197.481,197.481,0,0,0,60.81,34.211,212.982,212.982,0,0,0,70.831,11.71,194.01,194.01,0,0,0,46.462-5.281q21.405-5.274,37.124-16.532a81.287,81.287,0,0,0,24.825-28.471q9.106-17.22,9.11-40.64,0-22.042-7.516-37.2a70.69,70.69,0,0,0-21.864-25.716q-14.348-10.558-34.618-17.68A391.265,391.265,0,0,0,292.418,589.4q-21.864-5.048-37.807-9.643t-26.647-10.791q-10.708-6.2-15.715-14.924T207.238,532q0-24.8,17.537-39.033t55.344-14.235a129.019,129.019,0,0,1,28.014,2.985,143.86,143.86,0,0,1,24.825,7.807,130.136,130.136,0,0,1,20.5,10.791,67.791,67.791,0,0,1,14.576,12.4l19.131-33.522A165.73,165.73,0,0,0,340.246,452.1q-26.423-10.1-59.216-10.1h0Z" fill="#a0d1f0"/>
    </g>
  </g>
  <g id="f" opacity="0.8" style="isolation: isolate">
    <g id="f-2" data-name="f">
      <path d="M668.841,69.4v34.737H496.2V214.972H641.511v32.441H496.2V393.441h-39V69.4H668.841m1-1H456.208V394.441h41V248.413H642.511V213.972H497.2V105.139H669.841V68.4h0Z" fill="#ff966f"/>
    </g>
  </g>
  <g id="s-5" data-name="s" opacity="0.8" style="isolation: isolate">
    <g id="s-6" data-name="s">
      <path d="M283.571,67.107c21.625,0,41.428,3.377,58.858,10.036a165.713,165.713,0,0,1,45.988,26.4L370.4,135.111a71.321,71.321,0,0,0-13.856-11.521,131.713,131.713,0,0,0-20.655-10.875,145.55,145.55,0,0,0-25-7.862,130.627,130.627,0,0,0-28.23-3.009c-25.321,0-44.154,4.865-55.974,14.459-11.882,9.646-17.907,23.039-17.907,39.809,0,9.027,1.731,16.611,5.143,22.54s8.82,11.088,16.081,15.292a120.46,120.46,0,0,0,26.871,10.887c10.584,3.052,23.322,6.3,37.869,9.659a392.085,392.085,0,0,1,45.206,12.595c13.367,4.7,24.927,10.6,34.357,17.541a70.035,70.035,0,0,1,21.562,25.355c4.918,9.916,7.412,22.281,7.412,36.752,0,15.371-3.026,28.887-8.994,40.172a80.672,80.672,0,0,1-24.524,28.126c-10.323,7.395-22.7,12.9-36.781,16.374a193.911,193.911,0,0,1-46.223,5.252A212.981,212.981,0,0,1,216.259,385,197.385,197.385,0,0,1,156.4,351.493l18.513-32.987a112.863,112.863,0,0,0,18.137,14.771,154.968,154.968,0,0,0,26.591,14.1,195.954,195.954,0,0,0,32.049,10.155,161.678,161.678,0,0,0,35.98,3.928c23.167,0,41.434-4.226,54.294-12.559,13-8.423,19.587-21.22,19.587-38.035,0-9.336-2.124-17.323-6.312-23.737-4.17-6.379-10.336-11.97-18.327-16.619-7.922-4.6-17.879-8.73-29.595-12.262-11.733-3.528-25.159-7.163-39.909-10.806a395.4,395.4,0,0,1-43.163-12.824c-12.3-4.534-22.707-10.047-30.938-16.386A61.509,61.509,0,0,1,174.7,195.183c-4.17-9-6.284-19.981-6.284-32.643,0-15.393,2.878-29.152,8.555-40.894a85.94,85.94,0,0,1,23.866-29.962,104.425,104.425,0,0,1,36.549-18.418,166.211,166.211,0,0,1,46.183-6.16m0-1a166.433,166.433,0,0,0-46.462,6.2q-21.416,6.2-36.9,18.6a86.541,86.541,0,0,0-24.142,30.308q-8.658,17.909-8.655,41.329,0,19.287,6.377,33.063a62.211,62.211,0,0,0,18.9,23.42q12.523,9.643,31.2,16.532a394.639,394.639,0,0,0,43.273,12.858q22.313,5.51,39.857,10.791t29.38,12.169q11.84,6.888,17.993,16.3t6.149,23.19q0,24.8-19.131,37.2t-53.75,12.4a159.9,159.9,0,0,1-35.757-3.9,194.106,194.106,0,0,1-31.885-10.1,153.213,153.213,0,0,1-26.419-14.006,108.409,108.409,0,0,1-18.9-15.613l-19.587,34.9a197.482,197.482,0,0,0,60.81,34.211,212.983,212.983,0,0,0,70.831,11.71,194.015,194.015,0,0,0,46.462-5.281q21.405-5.274,37.124-16.532a81.288,81.288,0,0,0,24.825-28.471q9.106-17.22,9.11-40.64,0-22.042-7.516-37.2A70.691,70.691,0,0,0,374.9,243.821q-14.349-10.558-34.618-17.68a391.289,391.289,0,0,0-45.323-12.628q-21.864-5.048-37.807-9.643T230.5,193.078q-10.708-6.2-15.715-14.924t-5.011-22.042q0-24.8,17.537-39.033t55.344-14.236a129.021,129.021,0,0,1,28.014,2.985,143.857,143.857,0,0,1,24.825,7.807A130.128,130.128,0,0,1,356,124.426a67.792,67.792,0,0,1,14.576,12.4L389.7,103.3a165.733,165.733,0,0,0-46.917-27.093q-26.423-10.1-59.216-10.1h0Z" fill="#a0d1f0"/>
    </g>
  </g>
</svg>
